<svg width="408" height="106" viewBox="0 0 408 106" fill="none" xmlns="http://www.w3.org/2000/svg">
<path opacity="0.62" d="M45.88 28.786V65.614L39.494 72H1.24V69.52H6.2V24.88H1.24V22.4H39.494L45.88 28.786ZM20.46 24.88V69.52H31.62V24.88H20.46ZM57.8484 72H81.9664L87.7324 66.234L85.8104 64.312L80.6024 69.52H66.3424V56.5H81.6564L87.4224 50.734V40.566L81.6564 34.8H57.8484L52.0824 40.566V66.234L57.8484 72ZM66.3424 37.28H73.1624V54.02H66.3424V37.28ZM136.35 37.28H132.134L120.85 72H106.652L95.3681 37.28H91.1521V34.8H114.03V37.28H109.566L119.362 67.412L129.158 37.28H124.694V34.8H136.35V37.28ZM146.429 72H170.547L176.312 66.234L174.391 64.312L169.183 69.52H154.923V56.5H170.237L176.003 50.734V40.566L170.237 34.8H146.429L140.663 40.566V66.234L146.429 72ZM154.923 37.28H161.743V54.02H154.923V37.28ZM201.432 69.52V72H188.598L182.832 66.234V19.92H178.492V17.44H191.326L197.092 23.206V69.52H201.432ZM241.338 41.186V65.614L234.952 72H212.136L205.75 65.614V41.186L212.136 34.8H234.952L241.338 41.186ZM220.63 37.28V69.52H226.458V37.28H220.63ZM250.628 37.28V86.694L256.394 92.46H269.228V89.98H264.888V69.024L267.864 72H282.372L288.138 66.234V40.566L282.372 34.8H267.864L263.524 39.14L259.122 34.8H245.668V37.28H250.628ZM264.888 41.62L269.228 37.28H273.568V69.52H269.228L264.888 65.18V41.62ZM300.096 72H324.214L329.98 66.234L328.058 64.312L322.85 69.52H308.59V56.5H323.904L329.67 50.734V40.566L323.904 34.8H300.096L294.33 40.566V66.234L300.096 72ZM308.59 37.28H315.41V54.02H308.59V37.28ZM368.12 39.326L366.198 41.248L362.23 37.28H356.96L352.62 41.62V69.52H357.58V72H344.126L338.36 66.234V37.28H333.4V34.8H346.854L351.256 39.14L355.596 34.8H363.594L368.12 39.326ZM374.635 72.62V67.784L378.851 72H398.381L403.527 66.854V59.352L382.695 37.28H394.537L400.117 42.86V47.51H402.907V34.18H400.117V39.016L395.901 34.8H377.611L372.465 39.946V47.448L393.297 69.52H380.215L374.635 63.94V59.29H371.845V72.62H374.635Z" fill="#ABC0FF"/>
<path d="M225.596 26.04V27H215.66V26.04H218.228L216.212 19.8H209.564L207.524 26.04H209.972V27H204.74V26.04H206.372L212.3 7.8H218.036L223.964 26.04H225.596ZM215.9 18.84L212.876 9.576L209.876 18.84H215.9ZM244.548 26.04V27H239.1L237.108 25.008V13.56H235.428L233.748 15.24V26.04H234.948V27H226.308V26.04H228.228V13.56H226.308V12.6H231.516L233.22 14.28L234.9 12.6H240.396L242.628 14.832V26.04H244.548ZM263.623 26.04V27H258.415L256.735 25.296L255.031 27H249.655L247.423 24.768V13.56H245.503V12.6H250.591L252.823 14.832V26.04H254.503L256.183 24.36V12.6H259.471L261.703 14.832V26.04H263.623ZM280.926 14.832V24.768L278.694 27H272.694L271.014 25.296L269.31 27H266.022V6.84H264.102V5.88H269.31L271.542 8.112V13.896L272.838 12.6H278.694L280.926 14.832ZM273.222 26.04H275.286V13.56H273.366L271.542 15.384V24.36L273.222 26.04ZM300.485 26.04V27H295.277L293.045 24.768V13.56H291.125L289.565 15.12V26.04H291.005V27H286.277L284.045 24.768V6.84H282.125V5.88H287.333L289.565 8.112V13.632L290.597 12.6H296.333L298.565 14.832V26.04H300.485ZM304.166 27H309.422L310.886 25.536L312.326 27H317.774V26.04H315.854V14.592L313.862 12.6H304.766L302.774 14.592V17.4H307.814V13.56H310.334V19.32H304.166L302.174 21.312V25.008L304.166 27ZM307.814 20.28H310.334V24.6L308.894 26.04H307.814V20.28ZM336.242 13.56H334.61L330.242 27H324.746L320.378 13.56H318.746V12.6H327.602V13.56H325.874L329.666 25.224L333.458 13.56H331.73V12.6H336.242V13.56ZM340.143 27H349.479L351.711 24.768L350.967 24.024L348.951 26.04H343.431V21H349.359L351.591 18.768V14.832L349.359 12.6H340.143L337.911 14.832V24.768L340.143 27ZM343.431 13.56H346.071V20.04H343.431V13.56ZM355.987 27H365.323L367.555 24.768L366.811 24.024L364.795 26.04H359.275V21H365.203L367.435 18.768V14.832L365.203 12.6H355.987L353.755 14.832V24.768L355.987 27ZM359.275 13.56H361.915V20.04H359.275V13.56Z" fill="#5F5F5F"/>
</svg>
