<svg width="25" height="24" viewBox="0 0 25 24" fill="none" xmlns="http://www.w3.org/2000/svg">
<g clip-path="url(#clip0)">
<path d="M1.99996 1.63305C0.113955 3.59205 0.499955 5.67305 0.499955 11.995C0.499955 17.245 -0.416045 22.508 4.37796 23.747C5.87496 24.132 19.139 24.132 20.634 23.745C22.63 23.23 24.254 21.611 24.476 18.788C24.507 18.394 24.507 5.60305 24.475 5.20105C24.239 2.19405 22.388 0.461046 19.949 0.110046C19.39 0.0290464 19.278 0.00504639 16.41 4.63948e-05C6.23695 0.00504639 4.00696 -0.447954 1.99996 1.63305V1.63305Z" fill="url(#paint0_linear)"/>
<path d="M12.4978 3.13898C8.86681 3.13898 5.41881 2.81598 4.10181 6.19598C3.55781 7.59198 3.63681 9.40499 3.63681 12.001C3.63681 14.279 3.56381 16.42 4.10181 17.805C5.41581 21.187 8.89181 20.863 12.4958 20.863C15.9728 20.863 19.5578 21.225 20.8908 17.805C21.4358 16.395 21.3558 14.609 21.3558 12.001C21.3558 8.53899 21.5468 6.30398 19.8678 4.62598C18.1678 2.92598 15.8688 3.13898 12.4938 3.13898H12.4978ZM11.7038 4.73598C19.2778 4.72398 20.2418 3.88199 19.7098 15.579C19.5208 19.716 16.3708 19.262 12.4988 19.262C5.43881 19.262 5.23581 19.06 5.23581 11.997C5.23581 4.85198 5.79581 4.73998 11.7038 4.73398V4.73598ZM17.2278 6.20698C16.6408 6.20698 16.1648 6.68298 16.1648 7.26998C16.1648 7.85698 16.6408 8.33298 17.2278 8.33298C17.8148 8.33298 18.2908 7.85698 18.2908 7.26998C18.2908 6.68298 17.8148 6.20698 17.2278 6.20698V6.20698ZM12.4978 7.44998C9.98481 7.44998 7.94781 9.48799 7.94781 12.001C7.94781 14.514 9.98481 16.551 12.4978 16.551C15.0108 16.551 17.0468 14.514 17.0468 12.001C17.0468 9.48799 15.0108 7.44998 12.4978 7.44998V7.44998ZM12.4978 9.04698C16.4028 9.04698 16.4078 14.955 12.4978 14.955C8.59381 14.955 8.58781 9.04698 12.4978 9.04698Z" fill="white"/>
</g>
<defs>
<linearGradient id="paint0_linear" x1="2.04598" y1="22.4671" x2="24.3514" y2="3.16202" gradientUnits="userSpaceOnUse">
<stop stop-color="#FFDD55"/>
<stop offset="0.5" stop-color="#FF543E"/>
<stop offset="1" stop-color="#C837AB"/>
</linearGradient>
<clipPath id="clip0">
<rect width="24" height="24" fill="white" transform="translate(0.5)"/>
</clipPath>
</defs>
</svg>
