<svg width="25" height="24" viewBox="0 0 25 24" fill="none" xmlns="http://www.w3.org/2000/svg">
<g clip-path="url(#clip0)">
<path d="M22.329 0H2.67099C1.472 0 0.5 0.972 0.5 2.17099V21.8289C0.5 23.028 1.472 24 2.67099 24H22.3289C23.528 24 24.5 23.028 24.5 21.8289V2.17099C24.5 0.972 23.528 0 22.329 0ZM7.92662 20.7232C7.92662 21.0721 7.64377 21.355 7.29483 21.355H4.60544C4.2565 21.355 3.97365 21.0721 3.97365 20.7232V9.4494C3.97365 9.10046 4.2565 8.81761 4.60544 8.81761H7.29483C7.64377 8.81761 7.92662 9.10046 7.92662 9.4494V20.7232ZM5.95014 7.75489C4.5391 7.75489 3.3952 6.61099 3.3952 5.19996C3.3952 3.78892 4.5391 2.64503 5.95014 2.64503C7.36117 2.64503 8.50507 3.78892 8.50507 5.19996C8.50507 6.61099 7.36124 7.75489 5.95014 7.75489ZM21.9813 20.7741C21.9813 21.0949 21.7212 21.355 21.4004 21.355H18.5145C18.1937 21.355 17.9335 21.0949 17.9335 20.7741V15.486C17.9335 14.6972 18.1649 12.0292 15.872 12.0292C14.0934 12.0292 13.7327 13.8553 13.6602 14.6749V20.7741C13.6602 21.0949 13.4002 21.355 13.0793 21.355H10.2882C9.96737 21.355 9.70727 21.0949 9.70727 20.7741V9.39851C9.70727 9.07772 9.96737 8.81761 10.2882 8.81761H13.0793C13.4001 8.81761 13.6602 9.07772 13.6602 9.39851V10.3821C14.3197 9.39236 15.2998 8.62844 17.3866 8.62844C22.0077 8.62844 21.9813 12.9457 21.9813 15.3178V20.7741Z" fill="#0077B7"/>
</g>
<defs>
<clipPath id="clip0">
<rect width="24" height="24" fill="white" transform="translate(0.5)"/>
</clipPath>
</defs>
</svg>
